<svg fill="none" height="32" viewBox="0 0 888 136" width="210" xmlns="http://www.w3.org/2000/svg"><path d="m93.2614 8.92499c.8498-3.825-1.4871-7.4375-5.311-8.287502-3.8239-.85-7.4354 1.487502-8.2852 5.312502l-21.6689 97.11201h14.446z" fill="#0092e1"/><path d="m14.0211 7.64998c0-3.825-3.1867-7.012498-7.01057-7.012498-3.82393 0-7.01053 3.187498-7.01053 7.012498v95.41202h14.0211z" fill="#78bf26"/><path d="m18.9071 8.92499c-.8497-3.825 1.4871-7.4375 5.311-8.287502 3.824-.85 7.6479 1.487502 8.4976 5.312502l21.6689 97.11201h-14.4459z" fill="#ff7f39"/><path d="m98.3599 7.64998c0-3.825 3.1861-7.012498 7.0101-7.012498s7.011 3.187498 7.011 7.012498v95.41202h-14.0211z" fill="#002f70"/><g fill="#63666f"><path d="m386.641 90.95v9.137c-1.912 1.063-6.161 3.401-11.047 3.401-6.798 0-11.259-3.613-11.471-11.263-4.674 7.863-12.959 12.112-24.431 12.112-13.171 0-23.581-6.162-23.581-20.8245 0-14.45 12.959-21.675 30.167-21.675 4.673 0 11.259.2125 16.357.85v-4.8875c0-13.3875-7.01-18.4875-16.782-18.4875-5.099 0-9.56 1.275-12.534 3.4.849 1.0625 1.487 2.7625 1.487 4.4625 0 4.0375-2.762 7.0125-7.011 7.0125-4.886 0-7.01-4.0375-7.01-7.8625 0-8.7125 11.259-15.5125 25.28-15.5125 17.42 0 28.255 8.075 28.255 29.325v28.2625c0 4.0375 1.912 5.95 4.461 5.95 1.699-.2125 4.674-1.4875 7.86-3.4zm-23.793-19.125v-.6375c-5.311-.6375-11.684-.85-15.933-.85-11.047 0-19.332 3.6125-19.332 12.5375 0 9.35 6.161 12.75 14.233 12.75 9.56 0 16.996-5.3125 19.757-14.2375.85-2.975 1.275-5.525 1.275-9.5625z"/><path d="m467.156 102.425c-2.124.637-5.523 1.063-8.285 1.063-9.56 0-12.959-3.8255-12.959-13.6005v-1.0625c-4.674 9.5625-12.959 15.725-24.431 15.725-18.907 0-29.529-14.2375-29.529-37.1875s10.41-37.1875 29.529-37.1875c10.835 0 18.908 5.7375 23.581 14.6625v-35.7h-11.896v-9.1375h23.793v87.55c0 5.1 1.274 6.1625 6.161 6.1625 0 0 5.735.2125 8.072-.2125v7.863zm-22.306-36.7625c0-13.3875-7.011-25.2875-21.244-25.2875-12.747 0-20.182 10.2-20.182 27.2 0 16.7875 7.435 27.2 20.182 27.2 13.383 0 21.244-10.8375 21.244-25.2875z"/><path d="m262.789 43.5625c0 4.8875-2.975 8.5-7.861 8.5-4.036 0-7.01-2.7625-7.01-7.0125 0-1.4875.212-2.7625.85-3.6125-1.275-.6375-3.187-1.0625-4.887-1.0625-7.647 0-13.596 6.1625-15.933 17.6375-.637 3.6125-1.062 7.4375-1.062 11.6875v24.4375h14.871v9.1375h-40.364v-9.1375h13.597v-52.9125h-12.109v-9.35h22.306v16.3625c3.611-11.2625 11.472-17.6375 21.881-17.6375 9.347 0 15.721 5.525 15.721 12.9625z"/><path d="m306.764 93.925v9.138h-39.514v-9.138h14.871v-52.7h-13.596v-9.35h25.28v62.05zm-28.892-82.875c0-4.88749 4.036-8.71249 8.71-8.71249 4.886 0 8.71 4.0375 8.71 8.71249 0 4.8875-4.036 8.7125-8.71 8.7125-4.886 0-8.71-3.825-8.71-8.7125z"/><path d="m196.932 41.225h-9.985l-19.544 64.6c-5.948 19.763-13.596 28.687-27.192 28.687-9.56 0-16.783-5.099-16.783-12.537 0-4.675 2.974-8.5 7.648-8.5 4.036 0 7.01 2.975 7.01 6.587 0 1.913-.637 3.401-1.699 4.676 1.487.637 2.974 1.062 4.886 1.062 7.86 0 12.109-7.225 16.358-22.738v-.212h-3.824l-19.97-61.8375h-10.834v-9.1375h20.607l17.632 60.35 16.995-60.35h18.695z"/><path d="m548.096 108.162c0 7.438-6.373 14.875-21.669 14.875-12.109 0-19.969-4.25-19.969-11.475 0-3.825 1.911-6.375 4.886-6.375 2.336 0 4.248 1.913 4.248 4.25 0 1.7-.849 2.975-2.336 3.825 1.699 2.763 6.585 4.25 12.958 4.25 10.198 0 14.446-4.037 14.446-8.5 0-3.612-2.761-6.587-8.71-6.587h-12.321c-5.736 0-8.71-2.7625-8.71-7.0125 0-2.3375 1.274-4.4625 3.824-7.65l1.487-1.7c-3.824-2.7625-6.373-7.0125-6.373-12.325 0-9.1375 7.435-15.3 16.995-15.3 4.249 0 8.073 1.4875 11.047 3.825l7.648-8.5 4.886 3.6125-8.498 9.5625c1.275 1.9125 1.912 4.4625 1.912 7.0125 0 9.1375-7.435 15.3-16.995 15.3-1.7 0-3.612-.2125-5.099-.6375l-1.912 2.125c-1.274 1.4875-1.912 2.3375-1.912 3.4s.85 1.9125 2.762 1.9125h12.322c10.409.2125 15.083 5.737 15.083 12.112zm-31.229-34.212c0 5.7375 4.249 9.9875 9.985 9.9875s9.984-4.25 9.984-9.9875c0-5.95-4.248-9.9875-9.984-9.9875s-9.985 4.25-9.985 9.9875z"/><path d="m585.91 91.1625 6.161 2.125c-3.399 6.5875-9.135 10.8375-18.27 10.8375-12.746 0-20.182-8.7125-20.182-22.7375 0-13.8125 7.436-22.7375 20.182-22.7375 12.534 0 19.12 9.1375 19.12 24.225h-32.079c.425 9.775 5.311 15.5125 13.171 15.5125 5.736 0 9.348-2.7625 11.897-7.225zm-24.855-13.8125h25.067c-.424-8.075-4.886-13.3875-12.109-13.3875-7.435 0-12.109 4.8875-12.958 13.3875z"/><path d="m649.217 97.5375v5.7375h-20.182v-5.7375h6.161v-21.0375c0-8.2875-3.186-11.475-8.285-11.475-6.373 0-10.622 4.4625-12.109 9.35-.425.85-.637 2.3375-.637 4.675v18.4875h6.16v5.7375h-20.181v-5.7375h6.798v-32.3h-6.798v-5.7375h12.958v9.35c2.762-5.95 7.861-10.2 15.509-10.2 8.497 0 13.808 5.1 13.808 16.575v22.3125z"/><path d="m685.545 91.1625 6.16 2.125c-3.399 6.5875-9.135 10.8375-18.27 10.8375-12.746 0-20.181-8.7125-20.181-22.7375 0-13.8125 7.435-22.7375 20.181-22.7375 12.534 0 19.12 9.1375 19.12 24.225h-32.291c.425 9.775 5.311 15.5125 13.171 15.5125 5.949 0 9.56-2.7625 12.11-7.225zm-24.856-13.8125h25.068c-.425-8.075-4.886-13.3875-12.109-13.3875-7.648 0-12.109 4.8875-12.959 13.3875z"/><path d="m730.794 99.025c-2.761 3.187-7.01 5.1-11.684 5.1-7.648 0-12.321-4.675-12.321-13.6v-25.075h-8.073v-5.95h8.073v-12.325l7.01-1.4875v13.8125h15.083v5.95h-15.083v24.65c0 5.1 2.124 7.8625 6.373 7.8625 3.399 0 6.161-1.4875 8.498-4.675z"/><path d="m760.324 97.5375v5.7375h-23.369v-5.7375h8.285v-32.3h-8.285v-5.7375h15.508v38.0375zm-17.845-50.7875c0-2.975 2.336-5.3125 5.311-5.3125 2.974 0 5.311 2.3375 5.311 5.3125s-2.337 5.3125-5.311 5.3125c-2.975 0-5.311-2.3375-5.311-5.3125z"/><path d="m803.024 93.5c-2.762 6.1625-8.71 10.625-17.208 10.625-12.534 0-19.757-8.925-19.757-22.7375s7.648-22.7375 20.182-22.7375c9.56 0 16.358 5.525 16.358 11.9 0 3.4-2.124 5.7375-4.674 5.7375-2.761 0-4.673-1.9125-4.673-4.4625 0-1.9125 1.062-3.4 2.336-3.825-1.487-2.3375-4.673-4.0375-8.922-4.0375-8.498 0-13.171 6.5875-13.171 17.425 0 10.4125 4.249 16.575 12.959 16.575 5.098 0 8.497-2.125 10.834-6.375z"/><path d="m842.325 91.1625c0 8.075-6.585 12.7495-14.87 12.7495-5.099 0-9.773-1.912-12.534-5.312v4.462h-5.524v-13.1745h5.736c0 4.25 3.824 8.925 11.259 8.925 5.524 0 8.923-2.7625 8.923-7.225 0-3.1875-2.337-5.1-8.923-7.4375l-3.186-1.0625c-6.586-2.125-13.171-5.1-13.171-12.9625 0-7.4375 5.948-11.9 13.596-11.9 4.886 0 9.135 1.9125 11.471 4.4625v-3.825h5.524v12.325h-5.736c0-5.3125-4.886-8.075-9.985-8.075-4.673 0-7.86 2.55-7.86 6.375 0 3.4 2.337 5.1 8.923 7.225l3.186 1.0625c8.498 3.1875 13.171 6.5875 13.171 13.3875z"/><path d="m887.575 68.6375c0 8.5-7.01 15.5125-15.295 15.5125-8.498 0-15.509-7.0125-15.509-15.5125 0-8.7125 7.011-15.5125 15.721-15.5125 8.285 0 15.083 7.225 15.083 15.5125zm-28.042 0c0 7.225 5.736 12.9625 12.747 12.9625 7.01 0 12.534-5.95 12.534-12.9625 0-7.225-5.736-12.9625-12.534-12.9625-7.011 0-12.747 5.7375-12.747 12.9625zm16.358 8.925-2.974-7.225h-4.249v7.225h-3.824v-17.85h8.285c4.249 0 6.799 1.9125 6.799 5.3125 0 2.3375-1.063 3.825-3.4 4.675l3.4 7.8625zm-3.187-9.9875c2.125 0 3.4-.85 3.4-2.55 0-1.4875-1.063-2.55-2.975-2.55h-4.248v5.1z"/></g></svg>